<svg xmlns="http://www.w3.org/2000/svg" viewBox="0 0 1273.1 1034.1"><defs><style>.cls-1{fill:#00355a;}.cls-2{fill:#fff;}</style></defs><g id="Layer_2" data-name="Layer 2"><g id="Layer_1-2" data-name="Layer 1"><rect class="cls-1" x="573.3" width="699.8" height="1034.12"/><path d="M438.8,152a12.6,12.6,0,0,1,3.7,9V263.2a12.6,12.6,0,0,1-12.7,12.6H298.1c-3.5,0-5.2,1.8-5.2,5.3v592a12.5,12.5,0,0,1-3.7,9,12.2,12.2,0,0,1-9,3.7H157a12.6,12.6,0,0,1-12.7-12.7v-592c0-3.5-1.7-5.3-5.2-5.3H12.6a11.9,11.9,0,0,1-8.9-3.7A11.9,11.9,0,0,1,0,263.2V161a12.2,12.2,0,0,1,3.7-9,12.2,12.2,0,0,1,8.9-3.7H429.8A12.6,12.6,0,0,1,438.8,152Z"/><path class="cls-2" d="M733,882.1a12.5,12.5,0,0,1-3.7-9V161A12.6,12.6,0,0,1,742,148.3H932.7q95.8,0,153.8,55.9t57.9,148.5V681.4q0,92.7-57.9,148.5T932.7,885.8H742A12.2,12.2,0,0,1,733,882.1ZM883.2,758.3l47.4-1c18.9-.7,34.4-8.8,46.3-24.3s18.3-35.8,19-61.1V362.2c0-26.7-6-47.7-17.9-63.2s-28.1-23.2-48.5-23.2H883.2c-3.6,0-5.3,1.8-5.3,5.3V753C877.9,756.6,879.6,758.3,883.2,758.3Z"/></g></g></svg>